<svg width="16" height="20" viewBox="0 0 16 20" fill="none" xmlns="http://www.w3.org/2000/svg">
<path d="M3.43317 20C2.90978 19.9969 2.39295 19.8833 1.9165 19.6667C1.40121 19.4395 0.962193 19.0689 0.651875 18.599C0.341557 18.1291 0.173059 17.5798 0.166504 17.0167V2.98333C0.173059 2.42024 0.341557 1.87094 0.651875 1.40103C0.962193 0.931123 1.40121 0.560467 1.9165 0.333334C2.50941 0.0532798 3.16906 -0.0545854 3.82028 0.0220294C4.47151 0.0986442 5.08812 0.356658 5.59984 0.766668L14.0998 7.78333C14.4332 8.04869 14.7023 8.38581 14.8874 8.7696C15.0724 9.15338 15.1685 9.57395 15.1685 10C15.1685 10.4261 15.0724 10.8466 14.8874 11.2304C14.7023 11.6142 14.4332 11.9513 14.0998 12.2167L5.59984 19.2333C4.98714 19.7302 4.22202 20.0009 3.43317 20Z" fill="#24AB70"/>
</svg>
