<svg width="151" height="22" viewBox="0 0 151 22" fill="none" xmlns="http://www.w3.org/2000/svg">
<path d="M134.901 15.1911H132.928V18.2449H131.469V15.1911H125.1V13.93L131.37 5.00275H132.928V13.8399H134.901V15.1911ZM131.469 13.8399V9.53392C131.469 9.20361 131.472 8.90634 131.478 8.6421C131.484 8.37185 131.493 8.12262 131.505 7.89441C131.517 7.66019 131.526 7.43799 131.532 7.2278C131.544 7.0176 131.553 6.81041 131.559 6.60622H131.487C131.373 6.84644 131.241 7.10168 131.091 7.37193C130.947 7.63617 130.799 7.87339 130.649 8.08358L126.587 13.8399H131.469ZM136.613 17.3081C136.613 16.8877 136.715 16.5904 136.919 16.4163C137.123 16.2361 137.373 16.146 137.667 16.146C137.973 16.146 138.231 16.2361 138.442 16.4163C138.652 16.5904 138.757 16.8877 138.757 17.3081C138.757 17.7225 138.652 18.0257 138.442 18.2179C138.231 18.4041 137.973 18.4972 137.667 18.4972C137.373 18.4972 137.123 18.4041 136.919 18.2179C136.715 18.0257 136.613 17.7225 136.613 17.3081ZM145.369 4.88564C146.132 4.88564 146.807 5.00575 147.396 5.24597C147.984 5.48619 148.444 5.84052 148.774 6.30895C149.11 6.77138 149.278 7.3419 149.278 8.02052C149.278 8.55502 149.161 9.02345 148.927 9.42582C148.699 9.82218 148.39 10.1705 147.999 10.4708C147.609 10.7651 147.177 11.0293 146.702 11.2635C147.267 11.5217 147.774 11.813 148.225 12.1373C148.681 12.4616 149.041 12.843 149.305 13.2814C149.57 13.7198 149.702 14.2392 149.702 14.8398C149.702 15.5785 149.522 16.2181 149.161 16.7586C148.807 17.2931 148.309 17.7044 147.666 17.9927C147.023 18.281 146.27 18.4251 145.405 18.4251C144.474 18.4251 143.681 18.287 143.027 18.0107C142.378 17.7285 141.883 17.3261 141.54 16.8036C141.204 16.2751 141.036 15.6415 141.036 14.9029C141.036 14.2963 141.165 13.7708 141.423 13.3264C141.681 12.876 142.024 12.4886 142.45 12.1643C142.877 11.84 143.342 11.5668 143.846 11.3446C143.408 11.1044 143.006 10.8311 142.639 10.5248C142.279 10.2185 141.991 9.86122 141.775 9.45284C141.564 9.03846 141.459 8.55802 141.459 8.01152C141.459 7.3449 141.627 6.78038 141.964 6.31796C142.306 5.84953 142.771 5.4952 143.36 5.25498C143.955 5.00875 144.624 4.88564 145.369 4.88564ZM142.504 14.9119C142.504 15.5845 142.741 16.14 143.216 16.5784C143.69 17.0108 144.408 17.227 145.369 17.227C146.282 17.227 146.987 17.0108 147.486 16.5784C147.984 16.14 148.234 15.5665 148.234 14.8578C148.234 14.4194 148.119 14.0351 147.891 13.7048C147.663 13.3684 147.339 13.0682 146.918 12.8039C146.498 12.5397 146.002 12.2995 145.432 12.0833L145.108 11.9662C144.555 12.1944 144.084 12.4496 143.693 12.7319C143.309 13.0081 143.015 13.3234 142.811 13.6777C142.606 14.0321 142.504 14.4434 142.504 14.9119ZM145.351 6.11077C144.642 6.11077 144.063 6.28192 143.612 6.62424C143.162 6.96055 142.937 7.447 142.937 8.08358C142.937 8.54 143.045 8.92736 143.261 9.24565C143.483 9.55794 143.783 9.82819 144.162 10.0564C144.54 10.2786 144.964 10.4858 145.432 10.678C145.888 10.4858 146.294 10.2756 146.648 10.0474C147.002 9.81317 147.282 9.53692 147.486 9.21863C147.69 8.90033 147.792 8.51898 147.792 8.07457C147.792 7.43799 147.567 6.95154 147.116 6.61523C146.672 6.27892 146.084 6.11077 145.351 6.11077Z" fill="#222222"/>
<g clip-path="url(#clip0_4043_204)">
<path d="M13.6719 17.5408C13.549 17.5413 13.4277 17.5123 13.3183 17.4563L9.39789 15.4038L5.47748 17.4563C5.35018 17.5232 5.20665 17.5531 5.0632 17.5425C4.91976 17.5319 4.78217 17.4813 4.66605 17.3965C4.54994 17.3116 4.45997 17.1958 4.40637 17.0623C4.35277 16.9289 4.3377 16.783 4.36285 16.6414L5.13156 12.3136L1.96448 9.23878C1.86567 9.14018 1.79558 9.01652 1.76172 8.8811C1.72786 8.74567 1.73152 8.60358 1.77231 8.47007C1.81686 8.33345 1.89882 8.21206 2.00888 8.11966C2.11894 8.02727 2.25269 7.96757 2.39496 7.94735L6.77659 7.30933L8.70605 3.36586C8.769 3.23589 8.86728 3.12628 8.98963 3.04959C9.11199 2.9729 9.25348 2.93222 9.39789 2.93222C9.54229 2.93222 9.68378 2.9729 9.80614 3.04959C9.9285 3.12628 10.0268 3.23589 10.0897 3.36586L12.0422 7.30164L16.4239 7.93967C16.5661 7.95989 16.6999 8.01958 16.81 8.11198C16.92 8.20437 17.002 8.32577 17.0465 8.46239C17.0873 8.59589 17.091 8.73798 17.0571 8.87341C17.0233 9.00884 16.9532 9.13249 16.8544 9.23109L13.6873 12.3059L14.456 16.6337C14.4834 16.7779 14.4691 16.9268 14.4146 17.063C14.3601 17.1992 14.2678 17.317 14.1485 17.4025C14.0093 17.5 13.8417 17.5487 13.6719 17.5408Z" fill="#F95F5F"/>
</g>
<g clip-path="url(#clip1_4043_204)">
<path d="M36.7329 17.5408C36.61 17.5413 36.4887 17.5123 36.3793 17.4563L32.4589 15.4038L28.5385 17.4563C28.4112 17.5232 28.2677 17.5531 28.1242 17.5425C27.9808 17.5319 27.8432 17.4813 27.7271 17.3965C27.611 17.3116 27.521 17.1958 27.4674 17.0623C27.4138 16.9289 27.3987 16.783 27.4239 16.6414L28.1926 12.3136L25.0255 9.23878C24.9267 9.14018 24.8566 9.01652 24.8228 8.8811C24.7889 8.74567 24.7926 8.60358 24.8333 8.47007C24.8779 8.33345 24.9599 8.21206 25.0699 8.11966C25.18 8.02727 25.3137 7.96757 25.456 7.94735L29.8376 7.30933L31.7671 3.36586C31.83 3.23589 31.9283 3.12628 32.0507 3.04959C32.173 2.9729 32.3145 2.93222 32.4589 2.93222C32.6033 2.93222 32.7448 2.9729 32.8672 3.04959C32.9895 3.12628 33.0878 3.23589 33.1508 3.36586L35.1033 7.30164L39.4849 7.93967C39.6272 7.95989 39.7609 8.01958 39.871 8.11198C39.9811 8.20437 40.063 8.32577 40.1076 8.46239C40.1483 8.59589 40.152 8.73798 40.1181 8.87341C40.0843 9.00884 40.0142 9.13249 39.9154 9.23109L36.7483 12.3059L37.517 16.6337C37.5445 16.7779 37.5301 16.9268 37.4756 17.063C37.4211 17.1992 37.3288 17.317 37.2095 17.4025C37.0703 17.5 36.9027 17.5487 36.7329 17.5408Z" fill="#F95F5F"/>
</g>
<g clip-path="url(#clip2_4043_204)">
<path d="M59.7945 17.5408C59.6715 17.5413 59.5503 17.5123 59.4409 17.4563L55.5204 15.4038L51.6 17.4563C51.4727 17.5232 51.3292 17.5531 51.1858 17.5425C51.0423 17.5319 50.9047 17.4813 50.7886 17.3965C50.6725 17.3116 50.5825 17.1958 50.5289 17.0623C50.4753 16.9289 50.4603 16.783 50.4854 16.6414L51.2541 12.3136L48.087 9.23878C47.9882 9.14018 47.9181 9.01652 47.8843 8.8811C47.8504 8.74567 47.8541 8.60358 47.8949 8.47007C47.9394 8.33345 48.0214 8.21206 48.1314 8.11966C48.2415 8.02727 48.3752 7.96757 48.5175 7.94735L52.8992 7.30933L54.8286 3.36586C54.8916 3.23589 54.9898 3.12628 55.1122 3.04959C55.2346 2.9729 55.376 2.93222 55.5204 2.93222C55.6649 2.93222 55.8063 2.9729 55.9287 3.04959C56.0511 3.12628 56.1493 3.23589 56.2123 3.36586L58.1648 7.30164L62.5464 7.93967C62.6887 7.95989 62.8225 8.01958 62.9325 8.11198C63.0426 8.20437 63.1245 8.32577 63.1691 8.46239C63.2099 8.59589 63.2135 8.73798 63.1797 8.87341C63.1458 9.00884 63.0757 9.13249 62.9769 9.23109L59.8098 12.3059L60.5785 16.6337C60.606 16.7779 60.5916 16.9268 60.5371 17.063C60.4826 17.1992 60.3903 17.317 60.2711 17.4025C60.1319 17.5 59.9643 17.5487 59.7945 17.5408Z" fill="#F95F5F"/>
</g>
<g clip-path="url(#clip3_4043_204)">
<path d="M82.8552 17.5408C82.7323 17.5413 82.6111 17.5123 82.5016 17.4563L78.5812 15.4038L74.6608 17.4563C74.5335 17.5232 74.39 17.5531 74.2466 17.5425C74.1031 17.5319 73.9655 17.4813 73.8494 17.3965C73.7333 17.3116 73.6433 17.1958 73.5897 17.0623C73.5361 16.9289 73.521 16.783 73.5462 16.6414L74.3149 12.3136L71.1478 9.23878C71.049 9.14018 70.9789 9.01652 70.9451 8.8811C70.9112 8.74567 70.9149 8.60358 70.9557 8.47007C71.0002 8.33345 71.0822 8.21206 71.1922 8.11966C71.3023 8.02727 71.436 7.96757 71.5783 7.94735L75.9599 7.30933L77.8894 3.36586C77.9523 3.23589 78.0506 3.12628 78.173 3.04959C78.2953 2.9729 78.4368 2.93222 78.5812 2.93222C78.7256 2.93222 78.8671 2.9729 78.9895 3.04959C79.1118 3.12628 79.2101 3.23589 79.2731 3.36586L81.2256 7.30164L85.6072 7.93967C85.7495 7.95989 85.8832 8.01958 85.9933 8.11198C86.1034 8.20437 86.1853 8.32577 86.2299 8.46239C86.2707 8.59589 86.2743 8.73798 86.2405 8.87341C86.2066 9.00884 86.1365 9.13249 86.0377 9.23109L82.8706 12.3059L83.6393 16.6337C83.6668 16.7779 83.6524 16.9268 83.5979 17.063C83.5434 17.1992 83.4511 17.317 83.3319 17.4025C83.1927 17.5 83.025 17.5487 82.8552 17.5408Z" fill="#F95F5F"/>
</g>
<g clip-path="url(#clip4_4043_204)">
<path d="M105.917 17.5408C105.794 17.5413 105.673 17.5123 105.563 17.4563L101.643 15.4038L97.7224 17.4563C97.595 17.5232 97.4515 17.5531 97.3081 17.5425C97.1646 17.5319 97.027 17.4813 96.9109 17.3965C96.7948 17.3116 96.7048 17.1958 96.6512 17.0623C96.5976 16.9289 96.5826 16.783 96.6077 16.6414L97.3764 12.3136L94.2094 9.23878C94.1105 9.14018 94.0405 9.01652 94.0066 8.8811C93.9727 8.74567 93.9764 8.60358 94.0172 8.47007C94.0617 8.33345 94.1437 8.21206 94.2538 8.11966C94.3638 8.02727 94.4976 7.96757 94.6398 7.94735L99.0215 7.30933L100.951 3.36586C101.014 3.23589 101.112 3.12628 101.235 3.04959C101.357 2.9729 101.498 2.93222 101.643 2.93222C101.787 2.93222 101.929 2.9729 102.051 3.04959C102.173 3.12628 102.272 3.23589 102.335 3.36586L104.287 7.30164L108.669 7.93967C108.811 7.95989 108.945 8.01958 109.055 8.11198C109.165 8.20437 109.247 8.32577 109.291 8.46239C109.332 8.59589 109.336 8.73798 109.302 8.87341C109.268 9.00884 109.198 9.13249 109.099 9.23109L105.932 12.3059L106.701 16.6337C106.728 16.7779 106.714 16.9268 106.659 17.063C106.605 17.1992 106.513 17.317 106.393 17.4025C106.254 17.5 106.087 17.5487 105.917 17.5408Z" fill="#E5E5E5"/>
</g>
<defs>
<clipPath id="clip0_4043_204">
<rect width="18.449" height="18.449" fill="white" transform="translate(0.17334 1.39798)"/>
</clipPath>
<clipPath id="clip1_4043_204">
<rect width="18.449" height="18.449" fill="white" transform="translate(23.2346 1.39798)"/>
</clipPath>
<clipPath id="clip2_4043_204">
<rect width="18.449" height="18.449" fill="white" transform="translate(46.2959 1.39798)"/>
</clipPath>
<clipPath id="clip3_4043_204">
<rect width="18.449" height="18.449" fill="white" transform="translate(69.3569 1.39798)"/>
</clipPath>
<clipPath id="clip4_4043_204">
<rect width="18.449" height="18.449" fill="white" transform="translate(92.4182 1.39798)"/>
</clipPath>
</defs>
</svg>
